<?xml version="1.0" encoding="UTF-8" ?>
<!DOCTYPE svg PUBLIC "-//W3C//DTD SVG 1.1//EN" "http://www.w3.org/Graphics/SVG/1.1/DTD/svg11.dtd">
<svg width="192pt" height="192pt" viewBox="0 0 192 192" version="1.1" xmlns="http://www.w3.org/2000/svg">
<path fill="#ffffff" d=" M 0.00 0.00 L 192.00 0.00 L 192.00 192.00 L 0.00 192.00 L 0.00 0.00 Z" />
<path fill="#95a5a6" d=" M 27.88 34.91 C 38.45 30.73 50.00 32.22 61.08 32.02 C 63.36 31.73 65.13 33.08 66.29 34.91 C 54.83 35.52 43.05 33.67 31.86 36.88 C 28.17 38.00 24.65 39.61 21.27 41.47 C 20.79 37.48 24.91 36.07 27.88 34.91 Z" />
<path fill="#95a5a6" d=" M 125.71 34.91 C 127.69 31.00 132.43 32.12 136.01 31.95 C 147.06 31.95 158.96 31.21 168.82 37.18 C 170.52 37.94 170.50 39.90 170.73 41.47 C 164.64 38.07 157.92 35.61 150.90 35.21 C 142.52 34.72 134.11 35.17 125.71 34.91 Z" />
<path fill="#ecf0f1" d=" M 31.86 36.88 C 43.05 33.67 54.83 35.52 66.29 34.91 C 86.10 35.03 105.90 35.04 125.71 34.91 C 134.11 35.17 142.52 34.72 150.90 35.21 C 157.92 35.61 164.64 38.07 170.73 41.47 C 178.35 47.31 185.03 55.10 187.37 64.62 C 189.74 72.46 189.33 80.96 186.77 88.70 C 183.45 100.40 173.78 109.18 162.91 113.94 C 157.86 116.11 152.33 116.65 146.93 117.28 C 146.29 123.79 142.95 129.74 137.62 133.57 C 127.94 140.21 113.18 136.82 107.34 126.64 C 104.30 122.02 103.92 116.37 103.73 111.01 C 99.33 109.56 94.68 109.58 90.28 111.02 C 90.03 115.64 90.06 120.54 87.78 124.71 C 84.97 129.78 80.42 134.01 74.92 135.98 C 68.06 138.24 60.11 137.22 54.20 133.01 C 48.63 129.67 45.86 123.55 45.17 117.29 C 39.74 116.65 34.18 116.12 29.10 113.94 C 18.22 109.18 8.55 100.40 5.23 88.70 C 2.57 80.70 2.28 71.90 4.85 63.84 C 7.31 54.64 13.88 47.16 21.27 41.47 C 24.65 39.61 28.17 38.00 31.86 36.88 Z" />
<path fill="#bdc3c7" d=" M 39.36 53.44 C 46.50 52.08 54.28 54.40 59.36 59.64 C 65.79 65.82 67.71 76.02 64.20 84.18 C 60.21 94.22 48.23 100.16 37.82 97.21 C 27.99 94.83 20.65 85.11 21.07 75.00 C 21.09 64.68 29.18 55.15 39.36 53.44 Z" />
<path fill="#2980b9" d=" M 146.37 53.31 C 151.09 51.75 156.48 55.98 155.94 60.94 C 155.96 66.76 148.02 70.31 143.78 66.24 C 139.05 62.83 140.85 54.75 146.37 53.31 Z" />
<path fill="#9cc1d8" d=" M 145.44 57.19 C 146.84 56.79 147.33 57.29 146.90 58.69 C 145.50 59.08 145.01 58.59 145.44 57.19 Z" />
<path fill="#94bcd6" d=" M 150.14 57.25 C 151.55 56.75 152.02 57.21 151.55 58.62 C 150.14 59.13 149.68 58.67 150.14 57.25 Z" />
<path fill="#eff0f0" d=" M 148.21 60.53 C 149.66 60.29 149.72 62.76 148.79 63.39 C 147.35 63.63 147.27 61.16 148.21 60.53 Z" />
<path fill="#34495e" d=" M 39.37 63.50 C 46.07 61.17 54.12 65.91 54.88 73.06 C 56.27 80.09 50.17 87.29 43.00 87.03 C 36.58 87.23 30.77 81.43 30.97 75.00 C 30.86 69.87 34.48 64.99 39.37 63.50 Z" />
<path fill="#5e29b9" d=" M 127.42 68.45 C 130.48 67.32 134.29 67.91 136.32 70.64 C 140.46 74.92 136.97 83.16 130.98 83.04 C 126.61 83.62 122.38 79.39 122.96 75.02 C 122.84 72.13 125.04 69.75 127.42 68.45 Z" />
<path fill="#e74c3c" d=" M 164.37 68.32 C 169.09 66.76 174.47 70.97 173.93 75.94 C 173.96 81.77 166.03 85.28 161.78 81.23 C 157.07 77.83 158.85 69.74 164.37 68.32 Z" />
<path fill="#ecf0f1" d=" M 127.26 71.66 C 128.34 72.63 129.38 73.65 130.40 74.68 C 131.50 73.66 132.61 72.65 133.77 71.70 C 133.00 73.15 132.17 74.57 131.34 75.99 C 132.16 77.42 132.99 78.86 133.74 80.33 C 132.65 79.36 131.62 78.33 130.60 77.30 C 129.49 78.31 128.37 79.32 127.22 80.28 C 127.99 78.83 128.82 77.42 129.66 76.01 C 128.83 74.58 128.01 73.14 127.26 71.66 Z" />
<path fill="#ecf0f1" d=" M 163.45 77.40 C 164.51 75.43 165.52 73.42 166.67 71.50 C 167.60 73.47 168.53 75.44 169.46 77.42 C 167.45 77.30 165.45 77.32 163.45 77.40 Z" />
<path fill="#e74c3c" d=" M 166.08 74.37 C 169.47 74.51 164.51 77.34 166.08 74.37 Z" />
<path fill="#7f8c8d" d=" M 84.45 79.31 C 87.54 77.85 91.64 80.38 91.03 83.93 C 91.07 87.44 86.44 89.26 83.80 87.26 C 81.02 85.42 81.43 80.70 84.45 79.31 Z" />
<path fill="#7f8c8d" d=" M 103.45 79.31 C 106.54 77.85 110.65 80.38 110.03 83.93 C 110.07 87.44 105.44 89.26 102.80 87.26 C 100.02 85.42 100.43 80.70 103.45 79.31 Z" />
<path fill="#db5527" d=" M 145.34 83.29 C 148.85 82.35 153.77 82.78 155.37 86.61 C 157.02 90.44 156.20 96.30 151.66 97.71 C 148.15 98.65 143.23 98.21 141.63 94.39 C 139.98 90.55 140.80 84.70 145.34 83.29 Z" />
<path fill="#ecf0f1" d=" M 146.03 86.73 C 148.02 86.97 150.01 87.35 151.68 88.54 C 150.12 88.38 148.58 88.16 147.03 87.94 C 147.02 88.44 146.98 89.45 146.96 89.96 C 147.81 89.89 149.52 89.76 150.38 89.69 L 150.36 91.30 C 149.51 91.23 147.82 91.11 146.97 91.05 C 146.98 91.55 147.01 92.56 147.03 93.06 C 148.57 92.84 150.12 92.62 151.68 92.46 C 150.01 93.64 148.03 94.06 146.03 94.26 C 146.00 91.75 146.00 89.24 146.03 86.73 Z" />
<path fill="#bdc3c7" d=" M 5.23 88.70 C 8.55 100.40 18.22 109.18 29.10 113.94 C 34.18 116.12 39.74 116.65 45.17 117.29 C 45.86 123.55 48.63 129.67 54.20 133.01 C 52.16 138.94 49.69 144.71 47.56 150.61 C 44.61 158.66 36.74 164.88 28.05 165.08 C 24.38 165.20 20.57 165.25 17.08 163.92 C 9.12 160.76 2.64 152.87 2.96 144.03 C 3.13 135.94 2.51 127.79 3.65 119.74 C 4.04 116.51 4.05 113.25 3.99 110.00 C 3.73 102.87 5.28 95.83 5.23 88.70 Z" />
<path fill="#bdc3c7" d=" M 162.91 113.94 C 173.78 109.18 183.45 100.40 186.77 88.70 C 186.88 92.89 187.13 97.09 187.66 101.25 C 188.44 107.67 187.51 114.17 188.45 120.59 C 189.38 127.02 188.90 133.53 189.05 140.00 C 189.05 143.90 189.28 147.99 187.65 151.65 C 184.84 158.15 178.80 163.38 171.80 164.77 C 166.05 165.46 159.77 165.55 154.64 162.45 C 149.65 159.84 146.04 155.12 144.15 149.88 C 142.17 144.37 140.07 138.89 137.62 133.57 C 142.95 129.74 146.29 123.79 146.93 117.28 C 152.33 116.65 157.86 116.11 162.91 113.94 Z" />
<path fill="#2c3e50" d=" M 61.53 99.52 C 65.51 99.32 69.49 99.33 73.47 99.52 C 73.61 102.46 73.62 105.39 73.68 108.32 C 76.61 108.37 79.55 108.39 82.48 108.53 C 82.67 112.51 82.67 116.49 82.48 120.47 C 79.55 120.61 76.61 120.62 73.68 120.68 C 73.63 123.61 73.61 126.54 73.47 129.48 C 69.49 129.68 65.51 129.67 61.53 129.48 C 61.39 126.55 61.38 123.61 61.32 120.68 C 58.39 120.62 55.45 120.60 52.52 120.47 C 52.33 116.49 52.32 112.51 52.52 108.53 C 55.45 108.39 58.39 108.38 61.32 108.32 C 61.38 105.39 61.39 102.45 61.53 99.52 Z" />
<path fill="#34495e" d=" M 121.41 106.39 C 129.40 104.16 137.77 112.46 135.64 120.47 C 134.39 127.24 126.45 131.86 120.02 129.18 C 113.98 127.24 110.36 119.80 112.85 113.91 C 114.15 110.13 117.53 107.27 121.41 106.39 Z" />
</svg>
